:FULLY-SPECIFIED
:FORCE-ALL-JOINTS-BE-3DOF
:DEGREES
849
root 3.29058 16.5759 27.1468 -6.99757 9.68614 357.522
lfemur -22.2883 5.025 -11.6893
ltibia 30.3715 0 0
lfoot -8.68481 -11.0646 0
ltoes 18.278 0 0
rfemur -40.5771 -6.51052 25.7314
rtibia 30.9627 0 0
rfoot -8.74656 4.66983 0
rtoes -28.9785 0 0
lowerback 9.41004 1.57427 -1.37869
upperback 2.95116 1.59133 -1.22367
thorax -1.71662 0.808441 -0.20396
lowerneck -6.78046 -2.3763 2.74538
upperneck 3.45926 -3.60538 2.96615
head 2.30223 -1.64785 0.330169
lclavicle -5.89531e-015 -1.57625e-014 0
lhumerus -41.1183 -18.7542 84.3677
lradius 57.8641 0 0
lwrist 22.0835 0 0
lhand 3.32574 4.66063 0
lfingers 7.12502 0 0
lthumb 28.7324 32.0803 0
rclavicle -5.89531e-015 -1.57625e-014 0
rhumerus -42.6784 11.2482 -70.2531
rradius 58.0841 0 0
rwrist 1.86852 0 0
rhand -2.01818 -26.5893 0
rfingers 7.12502 0 0
rthumb 23.6461 -775.045 0
850
root 3.32994 16.5731 27.2805 -7.37053 10.0125 357.663
lfemur -21.7937 5.19209 -12.1119
ltibia 30.7332 0 0
lfoot -8.69301 -11.7373 0
ltoes 18.3597 0 0
rfemur -41.9266 -6.88864 25.842
rtibia 31.2721 0 0
rfoot -8.3361 5.15983 0
rtoes -29.1581 0 0
lowerback 9.68695 1.42682 -1.60575
upperback 3.04836 1.37765 -1.25635
thorax -1.78274 0.701765 -0.104396
lowerneck -6.8117 -2.40091 2.73599
upperneck 3.58417 -3.64533 3.01645
head 2.35011 -1.66363 0.344906
lclavicle -1.97029e-015 -1.62302e-014 0
lhumerus -40.7451 -19.1235 84.1496
lradius 58.0152 0 0
lwrist 22.1676 0 0
lhand 3.73382 4.63943 0
lfingers 7.12502 0 0
lthumb 29.1228 31.9991 0
rclavicle -1.97029e-015 -1.62302e-014 0
rhumerus -43.0632 10.1796 -68.996
rradius 57.7937 0 0
rwrist 1.97624 0 0
rhand -1.7816 -26.6601 0
rfingers 7.12502 0 0
rthumb 23.8732 -775.089 0
851
root 3.3693 16.5703 27.4141 -7.74348 10.3388 357.805
lfemur -21.299 5.35919 -12.5346
ltibia 31.0948 0 0
lfoot -8.70121 -12.41 0
ltoes 18.4413 0 0
rfemur -43.276 -7.26675 25.9527
rtibia 31.5815 0 0
rfoot -7.92563 5.64983 0
rtoes -29.3378 0 0
lowerback 9.96386 1.27937 -1.83281
upperback 3.14556 1.16396 -1.28904
thorax -1.84886 0.59509 -0.00483333
lowerneck -6.84295 -2.42552 2.7266
upperneck 3.70908 -3.68529 3.06675
head 2.39799 -1.6794 0.359643
lclavicle 1.95473e-015 -1.66979e-014 0
lhumerus -40.3719 -19.4927 83.9315
lradius 58.1664 0 0
lwrist 22.2517 0 0
lhand 4.1419 4.61822 0
lfingers 7.12502 0 0
lthumb 29.5131 31.9179 0
rclavicle 1.95473e-015 -1.66979e-014 0
rhumerus -43.4479 9.11103 -67.739
rradius 57.5033 0 0
rwrist 2.08395 0 0
rhand -1.54502 -26.7308 0
rfingers 7.12502 0 0
rthumb 24.1002 -775.132 0
852
root 3.40865 16.5674 27.5477 -8.11643 10.6652 357.947
lfemur -20.8043 5.52629 -12.9573
ltibia 31.4564 0 0
lfoot -8.70942 -13.0827 0
ltoes 18.5229 0 0
rfemur -44.6255 -7.64486 26.0633
rtibia 31.8909 0 0
rfoot -7.51517 6.13984 0
rtoes -29.5174 0 0
lowerback 10.2408 1.13192 -2.05987
upperback 3.24276 0.950275 -1.32172
thorax -1.91498 0.488415 0.0947298
lowerneck -6.87419 -2.45013 2.71721
upperneck 3.834 -3.72525 3.11705
head 2.44586 -1.69518 0.374379
lclavicle 5.87975e-015 -1.71656e-014 0
lhumerus -39.9987 -19.8619 83.7134
lradius 58.3175 0 0
lwrist 22.3358 0 0
lhand 4.54997 4.59702 0
lfingers 7.12502 0 0
lthumb 29.9035 31.8367 0
rclavicle 5.87975e-015 -1.71656e-014 0
rhumerus -43.8327 8.04246 -66.482
rradius 57.2129 0 0
rwrist 2.19167 0 0
rhand -1.30844 -26.8016 0
rfingers 7.12502 0 0
rthumb 24.3273 -775.176 0
853
root 3.44801 16.5646 27.6813 -8.48939 10.9916 358.088
lfemur -20.3097 5.69338 -13.3799
ltibia 31.8181 0 0
lfoot -8.71762 -13.7554 0
ltoes 18.6046 0 0
rfemur -45.975 -8.02298 26.174
rtibia 32.2003 0 0
rfoot -7.10471 6.62984 0
rtoes -29.697 0 0
lowerback 10.5177 0.984466 -2.28693
upperback 3.33996 0.736589 -1.35441
thorax -1.9811 0.381739 0.194293
lowerneck -6.90543 -2.47474 2.70782
upperneck 3.95891 -3.7652 3.16736
head 2.49374 -1.71095 0.389116
lclavicle 9.80478e-015 -1.76334e-014 0
lhumerus -39.6255 -20.2312 83.4953
lradius 58.4687 0 0
lwrist 22.4199 0 0
lhand 4.95805 4.57582 0
lfingers 7.12502 0 0
lthumb 30.2938 31.7555 0
rclavicle 9.80478e-015 -1.76334e-014 0
rhumerus -44.2175 6.9739 -65.2249
rradius 56.9225 0 0
rwrist 2.29938 0 0
rhand -1.07186 -26.8724 0
rfingers 7.12502 0 0
rthumb 24.5544 -775.219 0
854
root 3.48737 16.5618 27.8149 -8.86234 11.3179 358.23
lfemur -19.815 5.86048 -13.8026
ltibia 32.1797 0 0
lfoot -8.72582 -14.4281 0
ltoes 18.6862 0 0
rfemur -47.3244 -8.40109 26.2846
rtibia 32.5098 0 0
rfoot -6.69424 7.11985 0
rtoes -29.8766 0 0
lowerback 10.7946 0.837015 -2.51399
upperback 3.43717 0.522904 -1.38709
thorax -2.04722 0.275064 0.293856
lowerneck -6.93668 -2.49936 2.69843
upperneck 4.08382 -3.80516 3.21766
head 2.54162 -1.72673 0.403853
lclavicle 1.37298e-014 -1.81011e-014 0
lhumerus -39.2524 -20.6004 83.2771
lradius 58.6198 0 0
lwrist 22.504 0 0
lhand 5.36613 4.55462 0
lfingers 7.12502 0 0
lthumb 30.6842 31.6743 0
rclavicle 1.37298e-014 -1.81011e-014 0
rhumerus -44.6023 5.90533 -63.9679
rradius 56.632 0 0
rwrist 2.4071 0 0
rhand -0.835284 -26.9432 0
rfingers 7.12502 0 0
rthumb 24.7815 -775.263 0
855
root 3.52673 16.559 27.9485 -9.2353 11.6443 358.372
lfemur -19.3204 6.02758 -14.2252
ltibia 32.5414 0 0
lfoot -8.73402 -15.1008 0
ltoes 18.7679 0 0
rfemur -48.6739 -8.77921 26.3953
rtibia 32.8192 0 0
rfoot -6.28378 7.60985 0
rtoes -30.0562 0 0
lowerback 11.0715 0.689563 -2.74105
upperback 3.53437 0.309219 -1.41978
thorax -2.11334 0.168389 0.393419
lowerneck -6.96792 -2.52397 2.68904
upperneck 4.20874 -3.84511 3.26796
head 2.58949 -1.7425 0.418589
lclavicle 1.76548e-014 -1.85688e-014 0
lhumerus -38.8792 -20.9696 83.059
lradius 58.7709 0 0
lwrist 22.5881 0 0
lhand 5.7742 4.53342 0
lfingers 7.12502 0 0
lthumb 31.0746 31.5931 0
rclavicle 1.76548e-014 -1.85688e-014 0
rhumerus -44.987 4.83677 -62.7109
rradius 56.3416 0 0
rwrist 2.51481 0 0
rhand -0.598705 -27.0139 0
rfingers 7.12502 0 0
rthumb 25.0085 -775.306 0
